<?xml version="1.0" encoding="UTF-8"?>
<!DOCTYPE svg PUBLIC "-//W3C//DTD SVG 1.1//EN" "http://www.w3.org/Graphics/SVG/1.1/DTD/svg11.dtd">
<!-- Creator: CorelDRAW -->
<svg xmlns="http://www.w3.org/2000/svg" xml:space="preserve" width="30cm" height="30cm" version="1.1" style="shape-rendering:geometricPrecision; text-rendering:geometricPrecision; image-rendering:optimizeQuality; fill-rule:evenodd; clip-rule:evenodd"
viewBox="0 0 30000 30000"
 xmlns:xlink="http://www.w3.org/1999/xlink"
 xmlns:xodm="http://www.corel.com/coreldraw/odm/2003">
 <defs>
  <style type="text/css">
   <![CDATA[
    .fil0 {fill:none}
    .fil1 {fill:white}
   ]]>
  </style>
 </defs>
 <g id="Camada_x0020_1">
  <metadata id="CorelCorpID_0Corel-Layer"/>
  <rect class="fil0" width="30000" height="30000"/>
  <g id="_1300873193600">
   <path class="fil1" d="M13969.18 30000l2391.69 0c468.96,-201.94 2124.92,-402.6 2883.32,-620.18 5033.16,-1443.9 4351.94,-2502.09 4703.1,-5456.43 471.23,-3964.57 790.41,-8232.15 1354.69,-12164.56 -727.82,260.18 -1362.06,636.06 -2204.41,939.44 -3969.6,1429.79 -9813.09,1463.02 -13911.64,642.29 -2563.43,-513.3 -2849.58,-996.93 -4486.08,-1581.73 574.11,4000.74 914.99,8345.91 1383.05,12396.4 257.65,2229.54 -329.47,3260.56 2529.97,4431.91 3361.1,1376.84 4530.03,1103.24 5356.31,1412.86z"/>
   <path class="fil1" d="M11200.9 5831.28l-2014.56 4.69c238.72,-502.98 633.71,-844.8 979.96,-1272.46 364.65,-450.4 687.38,-860.82 1029.16,-1235.6 322.51,-353.57 729.98,-816.26 1041.38,-1226.15 809.23,-1065.34 1569.6,-736.18 4047.42,-736.18 1307.18,0 1503.45,756.78 2525.17,1961.73 522.26,615.91 1728.42,1920.79 2006.06,2509.72 -2953.36,-37 -2311.67,269.59 -3492.36,-1028.98 -1105.62,-1216.02 -788.44,-1049.73 -3055.55,-1049.73 -850.66,0 -1065.08,537.49 -1499.61,1010.12 -507.63,552.11 -665.23,1062.84 -1567.07,1062.84zm6083.91 -5831.28l-4268.22 0c-483.52,219.89 -970.39,251.04 -1376.09,567.8 -948.32,740.45 -972.47,1630.75 -2123.79,1877.48 -10845.92,2324.07 -7040.43,8436.66 5284.12,8492.52 2727.31,12.36 4715.68,-61.91 7183.75,-818.46 1842.03,-564.62 4632.07,-1514.19 4858.58,-3317.55 305.42,-2431.98 -3920.05,-3807.19 -5918.48,-4264.52 -903.45,-206.74 -897.37,-28.76 -1358.55,-635 -1178.19,-1548.77 -1213.79,-1304.65 -2281.32,-1902.27z"/>
  </g>
 </g>
</svg>
