<?xml version="1.0" encoding="UTF-8"?>
<!DOCTYPE svg PUBLIC "-//W3C//DTD SVG 1.1//EN" "http://www.w3.org/Graphics/SVG/1.1/DTD/svg11.dtd">
<!-- Creator: CorelDRAW -->
<svg xmlns="http://www.w3.org/2000/svg" xml:space="preserve" width="30cm" height="30cm" version="1.1" style="shape-rendering:geometricPrecision; text-rendering:geometricPrecision; image-rendering:optimizeQuality; fill-rule:evenodd; clip-rule:evenodd"
viewBox="0 0 30000 30000"
 xmlns:xlink="http://www.w3.org/1999/xlink"
 xmlns:xodm="http://www.corel.com/coreldraw/odm/2003">
 <defs>
  <style type="text/css">
   <![CDATA[
    .fil0 {fill:none}
    .fil1 {fill:white}
   ]]>
  </style>
 </defs>
 <g id="Camada_x0020_1">
  <metadata id="CorelCorpID_0Corel-Layer"/>
  <rect class="fil0" width="30000" height="30000"/>
  <g id="_1301932652720">
   <path class="fil1" d="M2990.4 5526.36c895.51,-192.71 1948.8,-318.17 2886.71,-479.83 475.95,-82.03 898.73,148.37 1329.06,292.09 435.23,145.4 823.54,271.24 1250.26,417.87 1235.54,424.59 1900.64,912.99 2198.55,-280.67 110.16,-441.49 224.91,-880.98 334.62,-1332.34 46.14,-189.99 74.21,-520.3 201.87,-631.23 158.43,-137.72 3358.39,-1678.26 3949.48,-1973.9 203.02,-101.52 367.6,-258.15 572.24,-159.92 607.61,291.57 2088.13,1155.97 2708.06,1510.53 484.93,277.31 1769.98,914.99 2129.17,1193.27 45.69,1037.61 -545.97,5484.29 -414.76,6027.29 96.09,397.73 614.64,643.16 993.27,336.81 321,-259.62 268.02,-842.45 306.81,-1318.73 80.99,-994.5 165.34,-1991.13 229.29,-2987.25 191.16,28.01 1334.48,591.8 1591.85,716.93 509.96,248.02 4383.23,2100.79 4777.86,2229.46 4.65,670.42 -352.23,3250.18 -446.39,4133.93 -48.14,451.56 2.07,724.62 -240.2,940.88l-1195.79 1056.2c-193.03,157.78 -391.35,400.5 -621.36,509.51 -142.49,-92.99 -982.43,-834.07 -1046.7,-963.2 288.66,-826.84 665.81,-1673.68 1000.63,-2508.33 266.08,-663.37 -67.39,-857.23 -428.65,-1148.03 -322.69,-259.76 -1679.1,-1480.01 -1953.71,-1553.97 -517.31,-139.39 -968.24,352.5 -756.48,843.62 100.79,233.88 695.44,665.17 909.63,842.46 214.78,177.79 827.87,650.52 945.19,812.12 -91.83,407.35 -452.65,1157.84 -623.93,1592.35 -249.69,633.5 -484.03,955.86 -482.99,1745.71l-0.26 5507.77c-1.41,413.42 -5.35,640.71 269.96,832.64 232.58,162.13 590.04,130.05 779.98,-49.63 206,-194.76 204.13,-494.73 203.61,-866.45 -2.07,-1468.46 5.49,-2937.62 -0.52,-4405.95 201.49,92.41 2098.08,1818.38 2206.69,1923.63l1611.4 1433.86c174.25,143.85 363.41,353.78 546.62,452.07 74.86,1401.41 0.19,2860.57 8.97,4269.45 2.72,439.31 -266.21,641.7 -467.89,925.91 -268.07,377.66 -2178.93,2954.34 -2328.72,3300.12l-7538.2 -8.52c-102.16,-244.66 -3054.24,-4101.59 -3330.12,-4466.54 -615.75,-814.64 -837.5,-574.31 -1620.58,-41.11 -272.07,185.22 -508.87,340.1 -777.6,516.35 -145.39,95.38 -220.44,207.99 -441.48,154.7 -822.52,-198.39 -2566.6,-727.72 -3505.48,-1000.64 -255.3,-74.22 -232.84,-115.59 -351.26,-318.61 -263.31,-451.31 -1076.46,-1672.78 -1193.8,-2025.41 226.91,-174.51 2678.9,-1172.68 3142.97,-1369.91 337.46,-143.4 757.73,-259.82 876.15,-580.5 146.56,-397.09 -497.5,-4548.76 -516.23,-5393.35 130.76,-94.48 4473.65,-1556.09 4771.93,-1602.88l1748.55 1769.84c-253.95,392.32 -1190.31,1212.51 -1596.3,1619.47 -147.79,148.18 -404.45,371.98 -512.22,530.54 -382.39,562.51 292.73,1233.29 844.51,885.51 279.51,-176.18 2182.42,-2161.89 2639.01,-2617.19 134.82,-134.37 408.97,-342.11 453.95,-592.78 60.34,-336.04 -106.87,-608.05 -367.21,-708.15 -474.2,-182.37 -350.63,212.71 -757.07,-200.13 -310.16,-314.92 -1864.84,-1977.05 -2184.23,-2030.62 -327.97,-54.99 -4290.42,1343.32 -4763.41,1503.62 -1848.25,626.39 -1692.07,310.74 -1437.67,2438.18 67.38,563.4 440.34,3439.58 397.99,3786.01 -1256.44,508.23 -2449.21,1078.34 -3707.27,1588.82 -974.69,395.47 -542.56,936.03 -132.43,1620.5 339.01,565.73 650.33,1088.79 988.24,1641.03 556.3,908.99 349.28,984.62 1357.77,1273.23 571.8,163.66 3814.94,1161.06 4142.45,1125.44 223.24,-24.2 1416.96,-846.71 1626.76,-996.12 107.85,69.7 1673.36,2144.41 1745.7,2314.08 -457.88,280.02 -893.18,606.57 -1347.96,903.37 -333.91,217.94 -322.68,284.99 -856.59,281.89l-5591.35 -0.12c-1036.38,0 -989.27,87.32 -1948.73,-317.77 -613.15,-258.93 -4425.82,-1813.54 -4779.6,-1899.43 66.08,-412.2 378.18,-1192.31 522.61,-1623.16 173.47,-517.38 342.11,-1033.35 521.51,-1565.7 299.84,-889.63 -379.85,-1227.28 -832.19,-953.59 -349.58,211.62 -497.31,965.52 -654.07,1432 -166.63,495.95 -1049.23,2884.17 -953.65,3232.74 80.66,294.15 280.73,375.85 588.43,498.15l2236.25 889.44c997.99,392.64 2019.98,797.02 3012.36,1202.63 797.53,325.97 788.63,360.88 1786.35,360.82l6300.59 0.06c842.27,1.55 852.79,-161.98 1504.15,-599.47 356.89,-239.62 880.53,-660.15 1249.81,-830.14 183.93,134.31 686.73,896.8 869.29,1126.69 182.91,230.26 304.3,302.02 715.64,304.02 319.72,1.55 640.47,-1.16 960.3,-1.16 2293.56,0 4592.91,46.21 6886.2,0.9 380.97,-7.49 509.45,-109.65 651.69,-324.68 513.45,-776.62 1114.09,-1505.89 1637.15,-2285.67 295,-439.88 1542.87,-1980.68 1565.59,-2412.43 65.05,-1234.18 0.06,-2668.24 0.06,-3924.7 0,-634.65 160.37,-1233.54 -339.91,-1638.31 -365.86,-295.96 -674.66,-615.22 -1034.58,-926.22 -528.81,-457.05 -1016.26,-949.53 -1571.4,-1391.27 -136.75,-108.75 -403.28,-340.63 -506.4,-467.18 106.02,-190.13 584.62,-530.62 744.94,-686.15 1474.84,-1430.71 1362.87,-639.48 1572.35,-2567.63 88.61,-815.16 180.45,-1644.31 274.74,-2467.02 301.7,-2633.85 485.75,-2447.6 -704.48,-2997.32 -865.31,-399.68 -6297.77,-2895.08 -6549.71,-3090.24 -84.34,-1447.03 316.36,-1210.25 -851.82,-1899.75 -578.1,-341.21 -1180.81,-670.73 -1768.35,-984.96 -615.8,-329.38 -1151.32,-645.94 -1766.16,-987.85 -2231.46,-1240.9 -1556.28,-1177.27 -3710.56,-97.32 -604.58,303.07 -1195.35,601.54 -1808.63,904.47 -333.46,164.77 -1644.13,776.44 -1805.4,949.01 -201.73,215.87 -507.06,1671.22 -610.05,2101.55 -236.67,-29.11 -785.67,-245.18 -1055.36,-335.4 -348.05,-116.42 -687.38,-228.06 -1065.37,-356.3 -242.91,-82.42 -854.45,-317.65 -1078.2,-347.79 -381.22,-51.23 -3119.68,480.29 -3617.96,561.15 -467.89,76.02 -747.46,141.01 -860.98,570.95 -280.28,1061.23 -526.67,2356.34 -763.52,3442.03 -526.29,2411.84 -770.5,2069.49 22.33,3244.11 949.97,1407.46 1838.11,2832.93 2805.9,4207.04 378.11,536.81 424.77,454.4 174.04,850.72 -172.43,272.53 -348.87,558.74 -532.54,843.23 -165.29,255.88 -484.67,613.09 -380.24,1002.95 85.37,318.93 474.46,578.12 881.56,373.98 230.32,-115.51 464.52,-553.07 618.31,-799.8l2710.59 -4257.37c713.38,-1076.34 853.74,-1072.2 513.19,-1918.92 -126.3,-313.97 -752.04,-1769.9 -771.66,-2002.95 2306.01,-341.26 4603.3,-657.49 6904.85,-986.81 566.04,-81 1275.56,-69.57 1487.88,-475.32 265.82,-508.08 -108.62,-992.62 -844.07,-885.05 -1141.71,166.96 -2285.74,331.73 -3426.16,490.87 -764.81,106.67 -4572.84,602.77 -5149.28,737.52 -694.39,162.3 -500.28,762.62 -313.5,1226.44 198.18,492.34 380.63,918.94 564.62,1400.5 336.23,880.02 519.9,906.02 206.33,1378.88l-1522.48 2394.74c-196.32,-146.56 -2593.26,-3838.67 -2789.77,-4133.92 -417.93,-628 -379.73,-414.52 -189.03,-1264.85 174.71,-779.08 860.4,-3648.28 925.25,-4211.04z"/>
   <path class="fil1" d="M18855.71 22978.4l-3430.48 -3449.32c-490.68,-392.97 -1179.66,-34.97 -1046.84,593.42 61.69,291.63 699.64,829.67 993.92,1128.21 920.93,933.96 1824.82,1829.02 2752.92,2755.12 304.35,303.7 412.96,445.1 984.24,233.1 279.96,-103.91 775.72,-231.5 955.97,-419.62 265.89,-277.44 213.1,-741.26 -91.26,-953.52 -401.99,-280.34 -749.39,51.11 -1118.47,112.61z"/>
   <path class="fil1" d="M19909.71 11720.73c-795.79,380.12 -171.08,1492.97 555.72,1104.28 658.54,-352.12 237.3,-1483.12 -555.72,-1104.28z"/>
   <path class="fil1" d="M21756.15 21915.5c-741.51,260.66 -408.77,1437.86 418.98,1179.71 687.89,-214.52 414.05,-1472.45 -418.98,-1179.71z"/>
   <path class="fil1" d="M2520.46 19943.27c-182.12,68.48 -268.22,106.93 -362.18,279.44 -251.04,460.99 186.57,1085.37 761.97,887.05 692.42,-238.72 414.26,-1472.45 -399.79,-1166.49z"/>
  </g>
 </g>
</svg>
